# xmcd
#
# Track frame offsets:
#	150
#	12433
#	23622
#	35025
#	44224
#	55943
#	67033
#	79104
#	91240
#	103382
#	117128
#	128898
#	141493
#	150622
#	162335
#	174452
#	185744
#	196422
#	207747
#	218322
#	232560
#	242635
#	251867
#	262099
#
# Disc length: 3648 seconds
#
# Revision: 0
# Processed by: cddbd v1.5.2PL0 Copyright (c) Steve Scherf et al.
# Submitted via: EasyCDDAExtractor 15.3.0.1
#
DISCID=620e3e18
DTITLE=Wells Kitty - Seasons Of My Heart - Kitty's Choice
DYEAR=1900
DGENRE=
TTITLE0=Seasons Of My Heart
TTITLE1=Only One I Ever Loved I Lost
TTITLE2=Most Of All
TTITLE3=Lonely Is A Word
TTITLE4=Fickle Fun
TTITLE5=Hands You're Holding Now
TTITLE6=Send Me The Pillow You Dream On
TTITLE7=Amigo's Guitar
TTITLE8=Let Me Help You Forget
TTITLE9=I'll Be All Smiles Tonight
TTITLE10=Other Cheek
TTITLE11=If I Had The Right To Do You Wrong
TTITLE12=Sugartime
TTITLE13=Dark Moon
TTITLE14=Your Cheatin' Heart
TTITLE15=Beautiful Brown Eyes
TTITLE16=Seven Lonely Days
TTITLE17=Half As Much
TTITLE18=Jambalaya
TTITLE19=Jealous Heart
TTITLE20=When The Moon Comes Over The Mountain
TTITLE21=Bonaparte's Retreat
TTITLE22=Tennessee Waltz
TTITLE23=My Happiness
EXTD=
EXTT0=
EXTT1=
EXTT2=
EXTT3=
EXTT4=
EXTT5=
EXTT6=
EXTT7=
EXTT8=
EXTT9=
EXTT10=
EXTT11=
EXTT12=
EXTT13=
EXTT14=
EXTT15=
EXTT16=
EXTT17=
EXTT18=
EXTT19=
EXTT20=
EXTT21=
EXTT22=
EXTT23=
PLAYORDER=
